<?xml version="1.0" standalone="no"?>
<!DOCTYPE svg PUBLIC "-//W3C//DTD SVG 20010904//EN"
 "http://www.w3.org/TR/2001/REC-SVG-20010904/DTD/svg10.dtd">
<svg version="1.0" xmlns="http://www.w3.org/2000/svg"
 width="700.000000pt" height="700.000000pt" viewBox="0 0 700.000000 700.000000"
 preserveAspectRatio="xMidYMid meet">
<metadata>
Created by potrace 1.11, written by Peter Selinger 2001-2013
</metadata>
<g transform="translate(0.000000,700.000000) scale(0.100000,-0.100000)"
fill="#000000" stroke="none">
<path d="M2787 6523 c-91 -17 -169 -49 -234 -97 -124 -91 -202 -211 -239 -367
-3 -13 -7 -186 -8 -384 l-2 -360 -664 -5 -665 -5 -50 -27 c-269 -141 -187
-536 113 -550 61 -3 62 -3 63 -33 1 -16 2 -43 4 -60 1 -16 5 -75 9 -130 4 -55
9 -116 11 -135 1 -19 6 -84 9 -145 4 -60 9 -128 11 -150 3 -22 7 -78 10 -125
3 -47 7 -112 10 -145 2 -33 6 -98 10 -145 3 -47 7 -114 10 -150 10 -133 16
-217 21 -293 2 -43 6 -99 8 -125 3 -26 7 -87 10 -137 4 -49 9 -117 11 -150 3
-33 7 -96 10 -140 3 -44 7 -102 10 -130 2 -27 7 -90 10 -140 3 -49 8 -117 10
-150 3 -33 7 -96 10 -140 6 -95 13 -185 20 -280 3 -38 8 -101 10 -140 2 -38 6
-99 9 -135 3 -36 8 -105 11 -155 17 -299 92 -484 269 -661 154 -154 340 -241
561 -262 100 -9 2619 -8 2696 2 31 4 71 11 88 16 17 5 31 7 31 5 0 -2 26 5 57
16 271 93 471 286 566 544 40 109 51 171 62 340 3 50 8 115 10 145 6 73 14
198 20 290 3 41 7 100 10 130 2 30 7 96 10 145 3 50 8 110 10 135 2 25 7 90
10 145 4 55 8 120 10 145 2 25 7 87 10 139 3 51 8 114 10 140 2 25 6 87 10
136 3 50 8 115 10 145 2 30 7 93 10 140 3 47 8 112 10 145 8 120 15 212 20
290 3 44 8 103 10 130 2 28 7 91 10 140 3 50 7 115 10 145 5 63 15 197 20 285
3 53 6 93 20 265 2 25 4 56 4 70 1 23 5 25 49 28 143 8 262 141 262 294 0 132
-108 262 -235 282 -16 2 -311 5 -655 5 l-625 1 0 333 c0 182 -3 361 -8 396
-29 223 -205 415 -437 477 -58 15 -133 17 -733 18 -467 1 -687 -2 -730 -11z
m1326 -880 c-1 -170 -2 -314 -2 -320 -1 -10 -130 -13 -611 -13 l-610 0 -1 68
c-1 95 -1 523 0 550 l1 22 613 0 612 0 -2 -307z m1200 -936 c0 -10 -4 -69 -8
-130 -3 -61 -8 -130 -10 -152 -2 -22 -6 -80 -10 -130 -3 -49 -7 -112 -9 -140
-2 -27 -7 -95 -11 -150 -3 -55 -8 -116 -10 -135 -2 -19 -7 -84 -11 -145 -4
-60 -8 -126 -9 -145 -12 -186 -17 -250 -20 -276 -2 -18 -6 -81 -10 -140 -3
-60 -8 -125 -10 -144 -2 -19 -7 -84 -10 -145 -4 -60 -8 -128 -10 -150 -2 -22
-7 -80 -10 -130 -3 -49 -8 -115 -10 -145 -2 -30 -6 -91 -10 -135 -3 -44 -7
-109 -10 -145 -3 -36 -8 -99 -10 -140 -3 -41 -7 -102 -9 -135 -3 -33 -8 -103
-11 -155 -4 -52 -8 -115 -10 -140 -2 -25 -6 -88 -10 -140 -3 -52 -11 -121 -16
-153 -19 -113 -100 -204 -211 -238 -57 -18 -121 -19 -1356 -19 -1443 0 -1361
-4 -1458 68 -36 27 -58 55 -81 102 -32 65 -39 102 -48 240 -9 152 -15 226 -20
280 -3 30 -7 93 -10 140 -4 80 -9 143 -20 285 -18 236 -18 240 -29 435 -4 63
-9 125 -11 137 -2 12 -6 75 -10 140 -4 65 -8 134 -10 153 -2 19 -6 76 -10 125
-3 50 -8 115 -10 145 -3 30 -7 93 -10 140 -8 121 -15 218 -20 270 -3 25 -7 90
-10 145 -3 55 -7 120 -10 145 -2 25 -7 90 -11 145 -3 55 -7 120 -9 145 -14
212 -18 257 -20 272 -3 15 -8 145 -6 158 1 3 817 5 1814 5 1741 0 1812 -1
1810 -18z"/>
<path d="M2850 4079 c-103 -15 -180 -72 -226 -167 l-28 -57 0 -980 0 -980 26
-55 c43 -91 96 -137 189 -164 131 -38 271 23 337 148 l27 51 0 995 c0 1102 5
1022 -65 1108 -57 71 -170 115 -260 101z"/>
<path d="M4055 4075 c-97 -22 -170 -80 -209 -165 -21 -45 -21 -52 -21 -1040
l0 -995 23 -42 c35 -66 78 -110 138 -139 167 -82 368 14 410 196 13 60 12
1917 -2 1972 -38 151 -192 248 -339 213z"/>
</g>
</svg>
