<?xml version="1.0" standalone="no"?>
<!DOCTYPE svg PUBLIC "-//W3C//DTD SVG 20010904//EN"
 "http://www.w3.org/TR/2001/REC-SVG-20010904/DTD/svg10.dtd">
<svg version="1.0" xmlns="http://www.w3.org/2000/svg"
 width="700.000000pt" height="700.000000pt" viewBox="0 0 700.000000 700.000000"
 preserveAspectRatio="xMidYMid meet">
<metadata>
Created by potrace 1.11, written by Peter Selinger 2001-2013
</metadata>
<g transform="translate(0.000000,700.000000) scale(0.100000,-0.100000)"
fill="#000000" stroke="none">
<path d="M2868 6415 c-2 -2 -24 -5 -50 -8 -59 -7 -170 -51 -228 -91 -105 -71
-186 -181 -230 -311 -22 -67 -23 -83 -26 -400 -2 -181 -3 -336 -3 -342 -1 -10
-127 -13 -593 -13 -326 0 -610 -3 -631 -6 -88 -15 -194 -110 -217 -194 -51
-190 69 -368 258 -382 19 -1 35 -5 37 -8 2 -3 6 -52 10 -110 4 -58 8 -121 10
-140 2 -19 6 -82 10 -140 4 -58 8 -121 10 -140 2 -19 6 -82 10 -140 3 -58 8
-123 10 -145 2 -22 7 -83 10 -135 3 -52 8 -115 10 -140 3 -25 7 -85 10 -133 3
-49 7 -110 9 -135 3 -26 7 -92 11 -147 3 -55 8 -122 10 -150 3 -27 7 -86 10
-130 5 -82 13 -188 20 -285 2 -30 7 -95 10 -145 3 -49 8 -115 10 -145 3 -30 7
-91 10 -135 3 -44 7 -105 10 -135 2 -30 7 -93 10 -140 3 -47 8 -110 10 -140 2
-30 7 -93 10 -140 21 -309 36 -388 99 -524 89 -194 263 -358 466 -439 163 -65
80 -61 1530 -62 1232 0 1320 2 1390 18 300 72 530 271 635 550 13 36 27 76 29
89 3 13 7 32 10 44 11 50 18 134 41 464 13 184 16 229 20 270 2 25 7 90 10
145 3 55 8 120 10 145 2 25 7 86 10 135 11 164 15 219 20 280 2 33 7 101 10
150 3 50 8 115 10 145 10 121 15 189 20 265 13 196 16 233 20 285 3 30 7 93
10 140 3 47 8 110 10 140 3 30 7 93 10 140 3 47 7 110 10 140 2 30 7 96 10
145 4 50 8 110 10 135 2 25 7 90 10 145 4 55 9 103 12 108 2 4 19 7 37 7 77 0
164 49 217 123 105 144 47 353 -118 430 -47 22 -55 22 -667 27 l-619 5 -2 340
c-2 293 -5 348 -20 395 -53 168 -153 287 -302 362 -46 23 -111 46 -146 53 -44
8 -251 12 -695 12 -347 0 -633 -1 -634 -2z m1212 -587 c3 -3 5 -134 4 -290 l0
-283 -582 -3 c-462 -2 -582 0 -583 10 -1 7 -2 137 -3 288 -1 207 2 276 11 280
18 8 1147 6 1153 -2z m1146 -1208 c-3 -25 -8 -85 -11 -135 -4 -49 -8 -119 -11
-155 -2 -36 -6 -92 -8 -125 -3 -33 -8 -98 -11 -145 -3 -47 -7 -110 -10 -140
-2 -30 -7 -91 -10 -135 -3 -44 -8 -111 -11 -150 -6 -85 -11 -160 -20 -285 -3
-52 -7 -115 -9 -140 -2 -25 -7 -83 -10 -130 -3 -47 -8 -107 -10 -135 -2 -27
-7 -95 -10 -150 -4 -55 -8 -116 -10 -135 -2 -19 -6 -84 -10 -145 -4 -60 -8
-126 -10 -145 -4 -38 -12 -151 -20 -270 -3 -41 -7 -104 -10 -140 -2 -36 -7
-101 -10 -145 -3 -44 -8 -105 -10 -135 -3 -30 -7 -93 -10 -140 -8 -123 -14
-158 -37 -207 -28 -59 -82 -111 -146 -141 l-53 -24 -1269 0 -1270 0 -52 25
c-94 43 -161 130 -172 225 -3 20 -8 73 -11 117 -3 44 -8 107 -10 140 -3 33 -7
98 -10 145 -3 47 -7 108 -10 135 -2 28 -7 91 -10 140 -3 50 -8 113 -10 140 -2
28 -7 95 -10 150 -4 55 -8 120 -11 145 -2 25 -6 83 -9 130 -3 47 -7 108 -10
135 -2 28 -7 91 -10 140 -3 50 -8 113 -10 140 -2 28 -7 91 -10 140 -3 50 -8
113 -10 140 -3 28 -7 88 -10 135 -7 112 -14 212 -19 280 -7 79 -18 236 -21
295 -3 46 -8 114 -20 265 -4 54 -14 190 -20 280 -2 25 -2 47 0 51 2 3 780 5
1730 5 l1726 0 -5 -46z"/>
<path d="M2855 4075 c-62 -14 -86 -27 -137 -73 -47 -42 -72 -89 -85 -157 -6
-30 -9 -403 -8 -950 1 -724 4 -908 14 -940 58 -170 233 -247 403 -177 51 21
124 103 147 165 21 58 21 60 19 990 l-3 932 -23 48 c-52 104 -123 151 -262
172 -8 1 -37 -3 -65 -10z"/>
<path d="M4033 4079 c-91 -17 -172 -80 -216 -169 l-22 -45 -2 -930 c-2 -727 0
-939 10 -970 45 -143 168 -226 311 -211 110 11 214 95 247 199 17 56 20 1846
3 1914 -36 140 -188 238 -331 212z"/>
</g>
</svg>
